<svg viewBox="0 0 24 24" fill="currentColor" xmlns="http://www.w3.org/2000/svg">
    <path
        d="M16.300 1.044 C 15.621 1.107,14.905 1.307,14.340 1.591 C 13.334 2.095,12.472 3.012,11.924 4.161 C 11.688 4.654,11.403 5.494,11.275 6.070 C 11.225 6.295,11.172 6.480,11.158 6.480 C 11.143 6.480,10.801 6.280,10.396 6.036 C 9.179 5.303,8.691 5.094,7.978 4.999 C 7.509 4.937,6.542 4.967,6.220 5.055 C 5.349 5.292,4.098 6.220,3.431 7.122 C 2.407 8.510,1.948 10.373,2.013 12.880 C 2.044 14.089,2.129 14.777,2.366 15.755 C 2.697 17.124,3.344 18.462,4.153 19.452 C 4.762 20.197,5.708 21.099,6.320 21.518 C 7.373 22.239,8.206 22.496,9.166 22.397 C 9.769 22.336,10.123 22.227,10.732 21.918 C 11.348 21.605,11.618 21.520,11.993 21.520 C 12.370 21.520,12.662 21.612,13.272 21.921 C 13.876 22.227,14.217 22.331,14.852 22.403 C 15.775 22.507,16.637 22.236,17.747 21.495 C 18.752 20.822,19.882 19.643,20.520 18.598 C 21.550 16.913,22.056 14.686,21.988 12.140 C 21.924 9.786,21.414 8.196,20.315 6.925 C 19.858 6.397,18.992 5.730,18.303 5.375 L 18.016 5.227 18.104 4.923 C 18.388 3.943,18.324 2.851,17.909 1.556 L 17.737 1.020 17.199 1.015 C 16.902 1.012,16.498 1.025,16.300 1.044 M16.257 3.324 C 16.296 3.669,16.246 4.170,16.136 4.521 C 16.002 4.952,15.999 4.955,15.580 5.002 C 14.882 5.080,14.231 5.331,13.646 5.749 L 13.391 5.930 13.421 5.795 C 13.463 5.599,13.723 5.009,13.925 4.650 C 14.189 4.183,14.756 3.629,15.203 3.405 C 15.535 3.238,15.972 3.089,16.145 3.083 C 16.219 3.080,16.233 3.109,16.257 3.324 M8.171 7.104 C 8.470 7.230,8.761 7.389,9.491 7.828 C 10.988 8.727,11.718 8.938,12.584 8.721 C 13.061 8.601,13.473 8.371,14.236 7.800 C 15.062 7.181,15.297 7.056,15.756 6.995 C 16.254 6.929,16.925 6.968,17.215 7.079 C 17.778 7.296,18.708 8.050,19.067 8.580 C 19.723 9.552,19.974 10.632,19.976 12.500 C 19.978 14.233,19.764 15.476,19.257 16.667 C 18.864 17.590,18.392 18.251,17.535 19.080 C 16.995 19.602,16.565 19.916,16.013 20.194 C 15.622 20.390,15.359 20.438,14.935 20.392 C 14.659 20.361,14.545 20.320,14.020 20.061 C 13.100 19.608,12.598 19.489,11.783 19.532 C 11.132 19.566,10.763 19.673,10.020 20.041 C 9.460 20.319,9.340 20.363,9.062 20.396 C 8.517 20.461,8.199 20.359,7.480 19.889 C 7.033 19.596,5.848 18.412,5.469 17.880 C 5.139 17.416,4.693 16.526,4.506 15.960 C 4.154 14.890,4.026 13.977,4.025 12.520 C 4.025 10.445,4.322 9.266,5.105 8.236 C 5.406 7.841,6.004 7.338,6.435 7.119 C 6.864 6.902,7.671 6.895,8.171 7.104 M6.785 12.056 C 6.572 12.136,6.357 12.317,6.251 12.506 C 6.115 12.750,6.028 13.334,6.027 14.020 C 6.026 14.887,6.145 15.548,6.422 16.209 C 6.669 16.798,7.195 17.441,7.580 17.624 C 8.181 17.910,8.895 17.525,8.986 16.865 C 9.029 16.550,8.942 16.318,8.654 15.981 C 8.512 15.814,8.353 15.592,8.301 15.489 C 8.082 15.050,7.980 14.290,8.052 13.620 C 8.140 12.794,8.103 12.585,7.819 12.301 C 7.562 12.045,7.106 11.937,6.785 12.056 "
    ></path>
</svg>