<svg viewBox="0 0 24 24" fill="currentColor" xmlns="http://www.w3.org/2000/svg">
    <path
        d="M6.695 1.057 C 6.466 1.129,6.256 1.299,6.128 1.516 L 6.020 1.700 6.009 5.250 C 6.003 7.203,5.989 8.800,5.978 8.800 C 5.884 8.800,5.464 8.532,5.330 8.386 C 5.001 8.029,5.023 8.250,5.000 5.060 C 4.980 2.244,4.979 2.219,4.894 2.060 C 4.700 1.701,4.399 1.520,4.000 1.520 C 3.581 1.520,3.278 1.714,3.095 2.100 L 3.001 2.300 3.001 5.060 C 3.001 6.802,3.016 7.916,3.043 8.080 C 3.175 8.893,3.601 9.612,4.249 10.112 C 4.643 10.416,5.356 10.739,5.889 10.857 L 5.999 10.881 6.009 16.594 L 6.020 22.306 6.141 22.503 C 6.543 23.156,7.457 23.156,7.859 22.503 L 7.980 22.306 7.991 16.594 L 8.001 10.881 8.111 10.857 C 8.827 10.699,9.517 10.345,10.014 9.880 C 10.492 9.432,10.783 8.903,10.924 8.220 C 10.993 7.889,10.999 7.638,10.999 5.080 L 10.999 2.300 10.905 2.100 C 10.722 1.714,10.419 1.520,10.000 1.520 C 9.581 1.520,9.278 1.714,9.095 2.100 L 9.001 2.300 9.000 4.997 C 9.000 8.082,9.007 8.011,8.688 8.365 C 8.544 8.526,8.124 8.800,8.022 8.800 C 8.011 8.800,7.997 7.203,7.991 5.250 L 7.980 1.700 7.872 1.516 C 7.628 1.101,7.150 0.915,6.695 1.057 M18.560 1.028 C 18.253 1.061,17.582 1.211,17.270 1.317 C 15.570 1.893,14.502 3.068,14.114 4.788 C 14.028 5.168,14.025 5.266,14.011 7.918 C 13.997 10.421,14.001 10.672,14.063 10.834 C 14.153 11.070,14.378 11.313,14.600 11.416 C 14.772 11.496,14.855 11.501,16.389 11.512 L 17.999 11.525 18.009 16.916 L 18.020 22.306 18.141 22.503 C 18.543 23.156,19.457 23.156,19.859 22.503 L 19.980 22.306 19.980 12.003 L 19.980 1.700 19.872 1.516 C 19.626 1.097,19.242 0.955,18.560 1.028 M18.000 6.360 L 18.000 9.520 16.997 9.520 L 15.994 9.520 16.011 7.450 C 16.028 5.232,16.033 5.176,16.248 4.667 C 16.433 4.228,16.801 3.793,17.203 3.537 C 17.393 3.417,17.868 3.203,17.950 3.201 C 17.990 3.200,18.000 3.858,18.000 6.360 "
    ></path>
</svg>