<svg width="24" height="24" fill="currentColor" xmlns="http://www.w3.org/2000/svg">
    <path
        d="M1.24 2.037a1.08 1.08 0 0 0-.664.583c-.096.228-.089.567.017.784.048.097.628.824 1.288 1.615.819.982 1.213 1.485 1.238 1.58.021.078.579 2.307 1.24 4.955.662 2.648 1.228 4.862 1.259 4.92.111.213.475.486.647.486.129 0 .033.035-.266.097a2.56 2.56 0 0 0-1.59 1.077c-.297.444-.39.775-.387 1.386.002.439.016.536.111.8a2.585 2.585 0 0 0 1.547 1.547c.269.098.354.109.82.109.466 0 .551-.011.82-.109a2.589 2.589 0 0 0 1.548-1.547c.097-.268.108-.355.108-.82 0-.465-.011-.552-.108-.82a2.775 2.775 0 0 0-.703-1.044 2.893 2.893 0 0 0-1.125-.574c-.227-.048.539-.056 5.96-.056s6.187.008 5.96.056a2.885 2.885 0 0 0-1.128.577c-.3.268-.593.713-.714 1.083-.084.254-.098.372-.096.798.002.439.016.536.111.8a2.585 2.585 0 0 0 1.547 1.547c.269.098.354.109.82.109.465 0 .552-.011.82-.108a2.589 2.589 0 0 0 1.547-1.548c.098-.269.109-.354.109-.82 0-.465-.011-.552-.108-.82a2.775 2.775 0 0 0-.703-1.044 2.831 2.831 0 0 0-1.164-.579c-.299-.062-.395-.097-.266-.097.172 0 .536-.273.647-.486.031-.058.634-2.416 1.341-5.24 1.412-5.644 1.356-5.364 1.139-5.735a.986.986 0 0 0-.54-.438C22.17 5.007 21.132 5 13.464 5H4.779l-.292-1.172c-.161-.644-.332-1.242-.38-1.328a1.129 1.129 0 0 0-.578-.458c-.171-.048-2.135-.052-2.289-.005M20.704 7.07c-.011.039-.445 1.771-.964 3.85l-.983 3.93-.04.15H7.283l-.04-.15-.983-3.93c-.519-2.079-.953-3.811-.964-3.85C5.276 7.004 5.661 7 13 7c7.339 0 7.724.004 7.704.07M6.724 19.062A.56.56 0 0 1 7 19.5c0 .248-.252.5-.5.5-.244 0-.5-.252-.5-.492 0-.251.248-.508.492-.508a.61.61 0 0 1 .232.062m13 0A.56.56 0 0 1 20 19.5c0 .248-.252.5-.5.5-.244 0-.5-.252-.5-.492 0-.251.248-.508.492-.508a.61.61 0 0 1 .232.062" />
</svg>