<svg viewBox="0 0 24 24" fill="currentColor"
    xmlns="http://www.w3.org/2000/svg">
    <path
        d="M8.900 2.045 C 7.431 2.229,6.051 3.245,5.421 4.609 C 4.787 5.981,4.883 7.574,5.677 8.864 C 6.287 9.855,7.242 10.550,8.437 10.871 C 8.778 10.963,8.895 10.974,9.500 10.974 C 10.105 10.974,10.222 10.963,10.563 10.871 C 12.550 10.337,13.890 8.711,13.988 6.717 C 14.126 3.921,11.702 1.695,8.900 2.045 M15.847 2.624 C 15.363 2.865,15.176 3.444,15.420 3.944 C 15.511 4.130,15.589 4.210,15.905 4.444 C 16.314 4.746,16.571 5.050,16.766 5.463 C 16.889 5.723,17.000 6.215,17.000 6.500 C 17.000 6.785,16.889 7.277,16.766 7.537 C 16.570 7.953,16.313 8.256,15.895 8.566 C 15.566 8.810,15.496 8.882,15.411 9.068 C 15.176 9.582,15.380 10.164,15.876 10.393 C 16.364 10.619,16.804 10.470,17.500 9.845 C 18.831 8.647,19.328 6.796,18.773 5.100 C 18.429 4.047,17.610 3.057,16.692 2.586 C 16.487 2.481,16.099 2.498,15.847 2.624 M10.020 4.060 C 10.741 4.211,11.395 4.713,11.715 5.362 C 12.087 6.118,12.090 6.878,11.723 7.620 C 11.439 8.195,10.932 8.646,10.320 8.868 C 10.052 8.965,9.965 8.976,9.500 8.976 C 9.035 8.976,8.948 8.965,8.680 8.868 C 8.068 8.646,7.561 8.195,7.277 7.620 C 6.347 5.740,7.972 3.631,10.020 4.060 M6.120 13.039 C 5.012 13.096,4.361 13.239,3.700 13.570 C 2.829 14.006,2.002 14.833,1.568 15.700 C 1.114 16.609,0.984 17.606,1.008 20.020 L 1.020 21.300 1.131 21.489 C 1.256 21.702,1.449 21.864,1.670 21.943 C 1.893 22.022,17.107 22.022,17.330 21.943 C 17.551 21.864,17.744 21.702,17.869 21.489 L 17.980 21.300 17.992 20.020 C 18.016 17.606,17.886 16.609,17.432 15.700 C 17.211 15.259,16.966 14.922,16.564 14.508 C 15.938 13.864,15.142 13.405,14.324 13.215 C 13.593 13.045,13.305 13.033,9.940 13.020 C 8.158 13.014,6.439 13.022,6.120 13.039 M19.416 13.533 C 18.947 13.757,18.721 14.229,18.858 14.698 C 18.943 14.990,19.112 15.174,19.531 15.430 C 20.247 15.867,20.704 16.490,20.858 17.235 C 20.949 17.680,20.969 18.035,20.995 19.702 L 21.020 21.306 21.141 21.503 C 21.543 22.156,22.457 22.156,22.859 21.503 L 22.980 21.306 22.992 20.023 C 23.016 17.606,22.887 16.609,22.432 15.700 C 22.003 14.842,21.175 14.011,20.321 13.580 C 20.006 13.421,19.685 13.405,19.416 13.533 M12.760 15.039 C 13.781 15.094,14.145 15.183,14.642 15.501 C 15.107 15.798,15.551 16.323,15.735 16.795 C 15.902 17.224,15.996 18.178,15.999 19.490 L 16.000 20.000 9.500 20.000 L 3.000 20.000 3.001 19.470 C 3.003 18.175,3.097 17.225,3.265 16.795 C 3.449 16.323,3.893 15.798,4.358 15.501 C 4.840 15.193,5.231 15.091,6.120 15.043 C 6.957 14.998,11.934 14.995,12.760 15.039 "
    ></path>
</svg>