<svg fill="currentColor" width="24" height="24" viewBox="0 0 24 24"  xmlns="http://www.w3.org/2000/svg">
<path d="M10.125 3C8.27051 3 6.75 4.52051 6.75 6.375C6.75 6.97559 6.91992 7.53223 7.19531 8.01562C5.84473 8.80664 4.78711 9.92871 4.21875 11.25H4.125C3.91113 11.25 3.75 11.0889 3.75 10.875C3.75 10.7432 3.81738 10.6377 3.91406 10.5703L3.04688 9.35156C2.56348 9.69141 2.25 10.2451 2.25 10.875C2.25 11.7979 2.93848 12.5537 3.82031 12.7031C3.78223 12.9668 3.75 13.2275 3.75 13.5C3.75 15.3691 4.74316 16.9893 6.1875 18.1875C6.00586 18.9375 6.09668 19.7373 6.67969 20.3203C7.56738 21.208 9.02637 21.208 9.91406 20.3203L10.1953 20.0391C10.7812 20.1475 11.3701 20.25 12 20.25C12.6299 20.25 13.2188 20.1475 13.8047 20.0391L14.0859 20.3203C14.9736 21.208 16.4326 21.208 17.3203 20.3203C17.8916 19.749 17.9766 18.9727 17.8125 18.2344C18.4248 17.7334 18.9346 17.1533 19.3359 16.5H21V10.5H19.2891C19.0195 10.0635 18.6973 9.65039 18.3281 9.28125L18.75 6.96094V6H18C18 6 16.1982 6.0293 14.6719 7.17188C14.2734 7.05762 13.8721 6.96387 13.4531 6.89062C13.4824 6.72363 13.5 6.55078 13.5 6.375C13.5 4.52051 11.9795 3 10.125 3ZM10.125 4.5C11.168 4.5 12 5.33203 12 6.375C12 6.50391 11.9766 6.62695 11.9531 6.75C10.7432 6.75586 9.60059 6.99023 8.55469 7.38281C8.36133 7.08984 8.25 6.74707 8.25 6.375C8.25 5.33203 9.08203 4.5 10.125 4.5ZM17.0625 7.64062C17.0742 7.6377 17.0742 7.64355 17.0859 7.64062L16.8047 9.35156L16.7344 9.75L17.0625 10.0312C17.5869 10.4941 17.9941 11.0127 18.2812 11.5781L18.4922 12H19.5V15H18.4922L18.2812 15.4219C17.915 16.1455 17.3379 16.7812 16.5938 17.3203L16.0547 17.7188L16.3828 18.3281C16.5615 18.6299 16.5293 19.002 16.2656 19.2656C15.9521 19.5791 15.4775 19.5791 15.1641 19.2656L14.625 18.7266L14.3203 18.4453L13.9219 18.5391C13.3125 18.6797 12.665 18.75 12 18.75C11.335 18.75 10.6904 18.6797 10.0781 18.5391L9.67969 18.4453L9.375 18.7266L8.83594 19.2656C8.52246 19.5791 8.04785 19.5791 7.73438 19.2656C7.4707 19.002 7.43848 18.6299 7.61719 18.3281L7.94531 17.7188L7.40625 17.3203C6.0498 16.3359 5.25 14.9912 5.25 13.5C5.25 10.6934 8.18262 8.25 12 8.25C12.9229 8.25 13.8018 8.3877 14.6016 8.64844L15 8.78906L15.3281 8.50781C15.8643 8.03027 16.5264 7.77246 17.0625 7.64062ZM16.5 12C16.0869 12 15.75 12.3369 15.75 12.75C15.75 13.1631 16.0869 13.5 16.5 13.5C16.9131 13.5 17.25 13.1631 17.25 12.75C17.25 12.3369 16.9131 12 16.5 12Z" />
</svg>
